<svg xmlns="http://www.w3.org/2000/svg" viewBox="0 0 900 420" font-family="system-ui, sans-serif" font-size="11">
<rect width="900" height="420" fill="#1a1a1a"/>
<line x1="50" y1="370" x2="720" y2="370" stroke="#333" stroke-width="0.5"/>
<text x="44" y="373" fill="#888" text-anchor="end">00:00</text>
<line x1="50" y1="313.3333333333333" x2="720" y2="313.3333333333333" stroke="#333" stroke-width="0.5"/>
<text x="44" y="316.3333333333333" fill="#888" text-anchor="end">04:00</text>
<line x1="50" y1="256.6666666666667" x2="720" y2="256.6666666666667" stroke="#333" stroke-width="0.5"/>
<text x="44" y="259.6666666666667" fill="#888" text-anchor="end">08:00</text>
<line x1="50" y1="200" x2="720" y2="200" stroke="#333" stroke-width="0.5"/>
<text x="44" y="203" fill="#888" text-anchor="end">12:00</text>
<line x1="50" y1="143.33333333333334" x2="720" y2="143.33333333333334" stroke="#333" stroke-width="0.5"/>
<text x="44" y="146.33333333333334" fill="#888" text-anchor="end">16:00</text>
<line x1="50" y1="86.66666666666663" x2="720" y2="86.66666666666663" stroke="#333" stroke-width="0.5"/>
<text x="44" y="89.66666666666663" fill="#888" text-anchor="end">20:00</text>
<line x1="50" y1="30" x2="720" y2="30" stroke="#333" stroke-width="0.5"/>
<text x="44" y="33" fill="#888" text-anchor="end">24:00</text>
<line x1="50" y1="30" x2="50" y2="370" stroke="#2a2a2a" stroke-width="0.5"/>
<text x="50" y="384" fill="#888" text-anchor="middle">03-23</text>
<line x1="115.90163934426229" y1="30" x2="115.90163934426229" y2="370" stroke="#2a2a2a" stroke-width="0.5"/>
<text x="115.90163934426229" y="384" fill="#888" text-anchor="middle">03-29</text>
<line x1="192.78688524590163" y1="30" x2="192.78688524590163" y2="370" stroke="#2a2a2a" stroke-width="0.5"/>
<text x="192.78688524590163" y="384" fill="#888" text-anchor="middle">04-05</text>
<line x1="269.672131147541" y1="30" x2="269.672131147541" y2="370" stroke="#2a2a2a" stroke-width="0.5"/>
<text x="269.672131147541" y="384" fill="#888" text-anchor="middle">04-12</text>
<line x1="346.55737704918033" y1="30" x2="346.55737704918033" y2="370" stroke="#2a2a2a" stroke-width="0.5"/>
<text x="346.55737704918033" y="384" fill="#888" text-anchor="middle">04-19</text>
<line x1="423.44262295081967" y1="30" x2="423.44262295081967" y2="370" stroke="#2a2a2a" stroke-width="0.5"/>
<text x="423.44262295081967" y="384" fill="#888" text-anchor="middle">04-26</text>
<line x1="500.327868852459" y1="30" x2="500.327868852459" y2="370" stroke="#2a2a2a" stroke-width="0.5"/>
<text x="500.327868852459" y="384" fill="#888" text-anchor="middle">05-03</text>
<line x1="577.2131147540983" y1="30" x2="577.2131147540983" y2="370" stroke="#2a2a2a" stroke-width="0.5"/>
<text x="577.2131147540983" y="384" fill="#888" text-anchor="middle">05-10</text>
<line x1="654.0983606557377" y1="30" x2="654.0983606557377" y2="370" stroke="#2a2a2a" stroke-width="0.5"/>
<text x="654.0983606557377" y="384" fill="#888" text-anchor="middle">05-17</text>
<polyline fill="none" stroke="#00d9a3" stroke-width="2" stroke-linejoin="round" points="50,77.93055555555554 60.98360655737705,92.56944444444446 71.9672131147541,57.861111111111086 82.95081967213115,85.25 93.9344262295082,73.68055555555554 104.91803278688525,201.6527777777778 115.90163934426229,92.56944444444446 126.88524590163935,64.94444444444446 137.8688524590164,66.59722222222223 148.85245901639342,251.47222222222223 159.8360655737705,79.34722222222223 170.81967213114754,129.87500000000003 181.80327868852459,74.86111111111114 192.78688524590163,96.81944444444446 203.7704918032787,121.61111111111109 214.75409836065575,49.833333333333314 225.7377049180328,71.08333333333331 236.72131147540983,59.51388888888886 247.70491803278688,115.94444444444443 258.6885245901639,112.875 269.672131147541,113.81944444444446 280.655737704918,80.29166666666669 291.6393442622951,81 302.62295081967216,67.06944444444446 313.60655737704917,67.77777777777777 324.59016393442624,119.48611111111109 335.57377049180326,70.61111111111114 346.55737704918033,55.5 357.5409836065574,68.01388888888891 368.5245901639344,123.73611111111111 379.5081967213115,66.59722222222223 390.4918032786885,114.05555555555557 401.4754098360656,62.347222222222285 412.4590163934426,76.27777777777777 423.44262295081967,92.33333333333331 434.42622950819674,59.51388888888886 445.40983606557376,38.5 456.39344262295083,59.27777777777777 467.37704918032784,47 478.3606557377049,56.44444444444446 489.344262295082,41.333333333333314 500.327868852459,85.95833333333331 511.3114754098361,59.75 522.295081967213,75.09722222222223 533.2786885245902,59.51388888888886 544.2622950819673,81.47222222222223 555.2459016393443,84.06944444444446 566.2295081967213,64.70833333333331 577.2131147540983,66.36111111111109 588.1967213114754,72.97222222222229 599.1803278688525,71.79166666666669 610.1639344262295,45.34722222222223 621.1475409836065,51.25 632.1311475409836,65.41666666666663 643.1147540983607,41.80555555555554 654.0983606557377,31.180555555555543 665.0819672131148,43.69444444444446 676.0655737704918,125.15277777777774 687.0491803278688,36.84722222222223 698.0327868852459,41.333333333333314 709.016393442623,62.347222222222285"/>
<circle cx="50" cy="77.93055555555554" r="2" fill="#00d9a3"/>
<circle cx="60.98360655737705" cy="92.56944444444446" r="2" fill="#00d9a3"/>
<circle cx="71.9672131147541" cy="57.861111111111086" r="2" fill="#00d9a3"/>
<circle cx="82.95081967213115" cy="85.25" r="2" fill="#00d9a3"/>
<circle cx="93.9344262295082" cy="73.68055555555554" r="2" fill="#00d9a3"/>
<circle cx="104.91803278688525" cy="201.6527777777778" r="2" fill="#00d9a3"/>
<circle cx="115.90163934426229" cy="92.56944444444446" r="2" fill="#00d9a3"/>
<circle cx="126.88524590163935" cy="64.94444444444446" r="2" fill="#00d9a3"/>
<circle cx="137.8688524590164" cy="66.59722222222223" r="2" fill="#00d9a3"/>
<circle cx="148.85245901639342" cy="251.47222222222223" r="2" fill="#00d9a3"/>
<circle cx="159.8360655737705" cy="79.34722222222223" r="2" fill="#00d9a3"/>
<circle cx="170.81967213114754" cy="129.87500000000003" r="2" fill="#00d9a3"/>
<circle cx="181.80327868852459" cy="74.86111111111114" r="2" fill="#00d9a3"/>
<circle cx="192.78688524590163" cy="96.81944444444446" r="2" fill="#00d9a3"/>
<circle cx="203.7704918032787" cy="121.61111111111109" r="2" fill="#00d9a3"/>
<circle cx="214.75409836065575" cy="49.833333333333314" r="2" fill="#00d9a3"/>
<circle cx="225.7377049180328" cy="71.08333333333331" r="2" fill="#00d9a3"/>
<circle cx="236.72131147540983" cy="59.51388888888886" r="2" fill="#00d9a3"/>
<circle cx="247.70491803278688" cy="115.94444444444443" r="2" fill="#00d9a3"/>
<circle cx="258.6885245901639" cy="112.875" r="2" fill="#00d9a3"/>
<circle cx="269.672131147541" cy="113.81944444444446" r="2" fill="#00d9a3"/>
<circle cx="280.655737704918" cy="80.29166666666669" r="2" fill="#00d9a3"/>
<circle cx="291.6393442622951" cy="81" r="2" fill="#00d9a3"/>
<circle cx="302.62295081967216" cy="67.06944444444446" r="2" fill="#00d9a3"/>
<circle cx="313.60655737704917" cy="67.77777777777777" r="2" fill="#00d9a3"/>
<circle cx="324.59016393442624" cy="119.48611111111109" r="2" fill="#00d9a3"/>
<circle cx="335.57377049180326" cy="70.61111111111114" r="2" fill="#00d9a3"/>
<circle cx="346.55737704918033" cy="55.5" r="2" fill="#00d9a3"/>
<circle cx="357.5409836065574" cy="68.01388888888891" r="2" fill="#00d9a3"/>
<circle cx="368.5245901639344" cy="123.73611111111111" r="2" fill="#00d9a3"/>
<circle cx="379.5081967213115" cy="66.59722222222223" r="2" fill="#00d9a3"/>
<circle cx="390.4918032786885" cy="114.05555555555557" r="2" fill="#00d9a3"/>
<circle cx="401.4754098360656" cy="62.347222222222285" r="2" fill="#00d9a3"/>
<circle cx="412.4590163934426" cy="76.27777777777777" r="2" fill="#00d9a3"/>
<circle cx="423.44262295081967" cy="92.33333333333331" r="2" fill="#00d9a3"/>
<circle cx="434.42622950819674" cy="59.51388888888886" r="2" fill="#00d9a3"/>
<circle cx="445.40983606557376" cy="38.5" r="2" fill="#00d9a3"/>
<circle cx="456.39344262295083" cy="59.27777777777777" r="2" fill="#00d9a3"/>
<circle cx="467.37704918032784" cy="47" r="2" fill="#00d9a3"/>
<circle cx="478.3606557377049" cy="56.44444444444446" r="2" fill="#00d9a3"/>
<circle cx="489.344262295082" cy="41.333333333333314" r="2" fill="#00d9a3"/>
<circle cx="500.327868852459" cy="85.95833333333331" r="2" fill="#00d9a3"/>
<circle cx="511.3114754098361" cy="59.75" r="2" fill="#00d9a3"/>
<circle cx="522.295081967213" cy="75.09722222222223" r="2" fill="#00d9a3"/>
<circle cx="533.2786885245902" cy="59.51388888888886" r="2" fill="#00d9a3"/>
<circle cx="544.2622950819673" cy="81.47222222222223" r="2" fill="#00d9a3"/>
<circle cx="555.2459016393443" cy="84.06944444444446" r="2" fill="#00d9a3"/>
<circle cx="566.2295081967213" cy="64.70833333333331" r="2" fill="#00d9a3"/>
<circle cx="577.2131147540983" cy="66.36111111111109" r="2" fill="#00d9a3"/>
<circle cx="588.1967213114754" cy="72.97222222222229" r="2" fill="#00d9a3"/>
<circle cx="599.1803278688525" cy="71.79166666666669" r="2" fill="#00d9a3"/>
<circle cx="610.1639344262295" cy="45.34722222222223" r="2" fill="#00d9a3"/>
<circle cx="621.1475409836065" cy="51.25" r="2" fill="#00d9a3"/>
<circle cx="632.1311475409836" cy="65.41666666666663" r="2" fill="#00d9a3"/>
<circle cx="643.1147540983607" cy="41.80555555555554" r="2" fill="#00d9a3"/>
<circle cx="654.0983606557377" cy="31.180555555555543" r="2" fill="#00d9a3"/>
<circle cx="665.0819672131148" cy="43.69444444444446" r="2" fill="#00d9a3"/>
<circle cx="676.0655737704918" cy="125.15277777777774" r="2" fill="#00d9a3"/>
<circle cx="687.0491803278688" cy="36.84722222222223" r="2" fill="#00d9a3"/>
<circle cx="698.0327868852459" cy="41.333333333333314" r="2" fill="#00d9a3"/>
<circle cx="709.016393442623" cy="62.347222222222285" r="2" fill="#00d9a3"/>
<polyline fill="none" stroke="#ff6b6b" stroke-width="2" stroke-linejoin="round" points="50,270.125 60.98360655737705,283.58333333333337 71.9672131147541,268 82.95081967213115,240.61111111111111 93.9344262295082,226.91666666666666 104.91803278688525,234.70833333333331 115.90163934426229,111.22222222222223 126.88524590163935,80.52777777777777 137.8688524590164,92.80555555555554 148.85245901639342,153.0138888888889 159.8360655737705,249.34722222222223 170.81967213114754,237.77777777777777 181.80327868852459,259.2638888888889 192.78688524590163,238.72222222222223 203.7704918032787,273.43055555555554 214.75409836065575,246.98611111111111 225.7377049180328,236.59722222222223 236.72131147540983,255.01388888888889 247.70491803278688,259.02777777777777 258.6885245901639,272.4861111111111 269.672131147541,153.0138888888889 280.655737704918,230.93055555555557 291.6393442622951,254.54166666666666 302.62295081967216,262.80555555555554 313.60655737704917,90.4444444444444 324.59016393442624,199.05555555555557 335.57377049180326,273.90277777777777 346.55737704918033,183.2361111111111 357.5409836065574,186.06944444444446 368.5245901639344,247.22222222222223 379.5081967213115,193.62500000000003 390.4918032786885,249.58333333333331 401.4754098360656,195.04166666666669 412.4590163934426,271.54166666666663 423.44262295081967,250.52777777777777 434.42622950819674,139.55555555555557 445.40983606557376,204.72222222222223 456.39344262295083,219.36111111111111 467.37704918032784,241.79166666666666 478.3606557377049,214.16666666666669 489.344262295082,273.43055555555554 500.327868852459,164.11111111111111 511.3114754098361,173.55555555555554 522.295081967213,165.76388888888889 533.2786885245902,202.83333333333331 544.2622950819673,204.01388888888889 555.2459016393443,195.98611111111111 566.2295081967213,273.43055555555554 577.2131147540983,132.2361111111111 588.1967213114754,163.6388888888889 599.1803278688525,245.09722222222223 610.1639344262295,85.01388888888886 621.1475409836065,241.55555555555557 632.1311475409836,252.65277777777777 643.1147540983607,273.19444444444446 654.0983606557377,67.77777777777777 665.0819672131148,130.1111111111111 676.0655737704918,129.6388888888889 687.0491803278688,140.02777777777777 698.0327868852459,92.33333333333331 709.016393442623,216.29166666666666 720,273.43055555555554"/>
<circle cx="50" cy="270.125" r="2" fill="#ff6b6b"/>
<circle cx="60.98360655737705" cy="283.58333333333337" r="2" fill="#ff6b6b"/>
<circle cx="71.9672131147541" cy="268" r="2" fill="#ff6b6b"/>
<circle cx="82.95081967213115" cy="240.61111111111111" r="2" fill="#ff6b6b"/>
<circle cx="93.9344262295082" cy="226.91666666666666" r="2" fill="#ff6b6b"/>
<circle cx="104.91803278688525" cy="234.70833333333331" r="2" fill="#ff6b6b"/>
<circle cx="115.90163934426229" cy="111.22222222222223" r="2" fill="#ff6b6b"/>
<circle cx="126.88524590163935" cy="80.52777777777777" r="2" fill="#ff6b6b"/>
<circle cx="137.8688524590164" cy="92.80555555555554" r="2" fill="#ff6b6b"/>
<circle cx="148.85245901639342" cy="153.0138888888889" r="2" fill="#ff6b6b"/>
<circle cx="159.8360655737705" cy="249.34722222222223" r="2" fill="#ff6b6b"/>
<circle cx="170.81967213114754" cy="237.77777777777777" r="2" fill="#ff6b6b"/>
<circle cx="181.80327868852459" cy="259.2638888888889" r="2" fill="#ff6b6b"/>
<circle cx="192.78688524590163" cy="238.72222222222223" r="2" fill="#ff6b6b"/>
<circle cx="203.7704918032787" cy="273.43055555555554" r="2" fill="#ff6b6b"/>
<circle cx="214.75409836065575" cy="246.98611111111111" r="2" fill="#ff6b6b"/>
<circle cx="225.7377049180328" cy="236.59722222222223" r="2" fill="#ff6b6b"/>
<circle cx="236.72131147540983" cy="255.01388888888889" r="2" fill="#ff6b6b"/>
<circle cx="247.70491803278688" cy="259.02777777777777" r="2" fill="#ff6b6b"/>
<circle cx="258.6885245901639" cy="272.4861111111111" r="2" fill="#ff6b6b"/>
<circle cx="269.672131147541" cy="153.0138888888889" r="2" fill="#ff6b6b"/>
<circle cx="280.655737704918" cy="230.93055555555557" r="2" fill="#ff6b6b"/>
<circle cx="291.6393442622951" cy="254.54166666666666" r="2" fill="#ff6b6b"/>
<circle cx="302.62295081967216" cy="262.80555555555554" r="2" fill="#ff6b6b"/>
<circle cx="313.60655737704917" cy="90.4444444444444" r="2" fill="#ff6b6b"/>
<circle cx="324.59016393442624" cy="199.05555555555557" r="2" fill="#ff6b6b"/>
<circle cx="335.57377049180326" cy="273.90277777777777" r="2" fill="#ff6b6b"/>
<circle cx="346.55737704918033" cy="183.2361111111111" r="2" fill="#ff6b6b"/>
<circle cx="357.5409836065574" cy="186.06944444444446" r="2" fill="#ff6b6b"/>
<circle cx="368.5245901639344" cy="247.22222222222223" r="2" fill="#ff6b6b"/>
<circle cx="379.5081967213115" cy="193.62500000000003" r="2" fill="#ff6b6b"/>
<circle cx="390.4918032786885" cy="249.58333333333331" r="2" fill="#ff6b6b"/>
<circle cx="401.4754098360656" cy="195.04166666666669" r="2" fill="#ff6b6b"/>
<circle cx="412.4590163934426" cy="271.54166666666663" r="2" fill="#ff6b6b"/>
<circle cx="423.44262295081967" cy="250.52777777777777" r="2" fill="#ff6b6b"/>
<circle cx="434.42622950819674" cy="139.55555555555557" r="2" fill="#ff6b6b"/>
<circle cx="445.40983606557376" cy="204.72222222222223" r="2" fill="#ff6b6b"/>
<circle cx="456.39344262295083" cy="219.36111111111111" r="2" fill="#ff6b6b"/>
<circle cx="467.37704918032784" cy="241.79166666666666" r="2" fill="#ff6b6b"/>
<circle cx="478.3606557377049" cy="214.16666666666669" r="2" fill="#ff6b6b"/>
<circle cx="489.344262295082" cy="273.43055555555554" r="2" fill="#ff6b6b"/>
<circle cx="500.327868852459" cy="164.11111111111111" r="2" fill="#ff6b6b"/>
<circle cx="511.3114754098361" cy="173.55555555555554" r="2" fill="#ff6b6b"/>
<circle cx="522.295081967213" cy="165.76388888888889" r="2" fill="#ff6b6b"/>
<circle cx="533.2786885245902" cy="202.83333333333331" r="2" fill="#ff6b6b"/>
<circle cx="544.2622950819673" cy="204.01388888888889" r="2" fill="#ff6b6b"/>
<circle cx="555.2459016393443" cy="195.98611111111111" r="2" fill="#ff6b6b"/>
<circle cx="566.2295081967213" cy="273.43055555555554" r="2" fill="#ff6b6b"/>
<circle cx="577.2131147540983" cy="132.2361111111111" r="2" fill="#ff6b6b"/>
<circle cx="588.1967213114754" cy="163.6388888888889" r="2" fill="#ff6b6b"/>
<circle cx="599.1803278688525" cy="245.09722222222223" r="2" fill="#ff6b6b"/>
<circle cx="610.1639344262295" cy="85.01388888888886" r="2" fill="#ff6b6b"/>
<circle cx="621.1475409836065" cy="241.55555555555557" r="2" fill="#ff6b6b"/>
<circle cx="632.1311475409836" cy="252.65277777777777" r="2" fill="#ff6b6b"/>
<circle cx="643.1147540983607" cy="273.19444444444446" r="2" fill="#ff6b6b"/>
<circle cx="654.0983606557377" cy="67.77777777777777" r="2" fill="#ff6b6b"/>
<circle cx="665.0819672131148" cy="130.1111111111111" r="2" fill="#ff6b6b"/>
<circle cx="676.0655737704918" cy="129.6388888888889" r="2" fill="#ff6b6b"/>
<circle cx="687.0491803278688" cy="140.02777777777777" r="2" fill="#ff6b6b"/>
<circle cx="698.0327868852459" cy="92.33333333333331" r="2" fill="#ff6b6b"/>
<circle cx="709.016393442623" cy="216.29166666666666" r="2" fill="#ff6b6b"/>
<circle cx="720" cy="273.43055555555554" r="2" fill="#ff6b6b"/>
<polyline fill="none" stroke="#4dabf7" stroke-width="2" stroke-linejoin="round" points="50,264.69444444444446 60.98360655737705,119.25000000000003 71.9672131147541,55.736111111111086 82.95081967213115,239.66666666666669 93.9344262295082,193.38888888888889 104.91803278688525,238.48611111111111 115.90163934426229,62.81944444444446 126.88524590163935,288.77777777777777 137.8688524590164,123.26388888888886 148.85245901639342,239.90277777777777 159.8360655737705,234.70833333333331 170.81967213114754,42.041666666666686 181.80327868852459,183.2361111111111 192.78688524590163,57.861111111111086 203.7704918032787,61.166666666666686 214.75409836065575,149.23611111111111 225.7377049180328,124.68055555555557 236.72131147540983,222.66666666666666 247.70491803278688,217.47222222222223 258.6885245901639,227.15277777777777 269.672131147541,108.15277777777777 280.655737704918,131.05555555555554 291.6393442622951,99.18055555555554 302.62295081967216,75.56944444444446 313.60655737704917,123.26388888888886 324.59016393442624,145.45833333333334 335.57377049180326,53.61111111111114 346.55737704918033,79.8194444444444 357.5409836065574,107.91666666666663 368.5245901639344,69.66666666666669 379.5081967213115,43.458333333333314 390.4918032786885,73.20833333333331 401.4754098360656,137.90277777777777 412.4590163934426,109.09722222222223 423.44262295081967,31.416666666666686 434.42622950819674,66.59722222222223 445.40983606557376,106.5 456.39344262295083,109.80555555555554 467.37704918032784,129.40277777777777 478.3606557377049,258.31944444444446 489.344262295082,72.73611111111109 500.327868852459,211.33333333333334 511.3114754098361,149.94444444444443 522.295081967213,83.125 533.2786885245902,107.6805555555556 544.2622950819673,98.70833333333337 555.2459016393443,90.20833333333337 566.2295081967213,163.87499999999997 577.2131147540983,123.5 588.1967213114754,78.16666666666663 599.1803278688525,48.416666666666686 610.1639344262295,90.20833333333337 621.1475409836065,51.958333333333314 632.1311475409836,46.29166666666663 643.1147540983607,52.90277777777777 654.0983606557377,158.20833333333334 665.0819672131148,71.31944444444446 676.0655737704918,62.583333333333314 687.0491803278688,55.263888888888914 698.0327868852459,62.81944444444446 709.016393442623,66.59722222222223"/>
<circle cx="50" cy="264.69444444444446" r="2" fill="#4dabf7"/>
<circle cx="60.98360655737705" cy="119.25000000000003" r="2" fill="#4dabf7"/>
<circle cx="71.9672131147541" cy="55.736111111111086" r="2" fill="#4dabf7"/>
<circle cx="82.95081967213115" cy="239.66666666666669" r="2" fill="#4dabf7"/>
<circle cx="93.9344262295082" cy="193.38888888888889" r="2" fill="#4dabf7"/>
<circle cx="104.91803278688525" cy="238.48611111111111" r="2" fill="#4dabf7"/>
<circle cx="115.90163934426229" cy="62.81944444444446" r="2" fill="#4dabf7"/>
<circle cx="126.88524590163935" cy="288.77777777777777" r="2" fill="#4dabf7"/>
<circle cx="137.8688524590164" cy="123.26388888888886" r="2" fill="#4dabf7"/>
<circle cx="148.85245901639342" cy="239.90277777777777" r="2" fill="#4dabf7"/>
<circle cx="159.8360655737705" cy="234.70833333333331" r="2" fill="#4dabf7"/>
<circle cx="170.81967213114754" cy="42.041666666666686" r="2" fill="#4dabf7"/>
<circle cx="181.80327868852459" cy="183.2361111111111" r="2" fill="#4dabf7"/>
<circle cx="192.78688524590163" cy="57.861111111111086" r="2" fill="#4dabf7"/>
<circle cx="203.7704918032787" cy="61.166666666666686" r="2" fill="#4dabf7"/>
<circle cx="214.75409836065575" cy="149.23611111111111" r="2" fill="#4dabf7"/>
<circle cx="225.7377049180328" cy="124.68055555555557" r="2" fill="#4dabf7"/>
<circle cx="236.72131147540983" cy="222.66666666666666" r="2" fill="#4dabf7"/>
<circle cx="247.70491803278688" cy="217.47222222222223" r="2" fill="#4dabf7"/>
<circle cx="258.6885245901639" cy="227.15277777777777" r="2" fill="#4dabf7"/>
<circle cx="269.672131147541" cy="108.15277777777777" r="2" fill="#4dabf7"/>
<circle cx="280.655737704918" cy="131.05555555555554" r="2" fill="#4dabf7"/>
<circle cx="291.6393442622951" cy="99.18055555555554" r="2" fill="#4dabf7"/>
<circle cx="302.62295081967216" cy="75.56944444444446" r="2" fill="#4dabf7"/>
<circle cx="313.60655737704917" cy="123.26388888888886" r="2" fill="#4dabf7"/>
<circle cx="324.59016393442624" cy="145.45833333333334" r="2" fill="#4dabf7"/>
<circle cx="335.57377049180326" cy="53.61111111111114" r="2" fill="#4dabf7"/>
<circle cx="346.55737704918033" cy="79.8194444444444" r="2" fill="#4dabf7"/>
<circle cx="357.5409836065574" cy="107.91666666666663" r="2" fill="#4dabf7"/>
<circle cx="368.5245901639344" cy="69.66666666666669" r="2" fill="#4dabf7"/>
<circle cx="379.5081967213115" cy="43.458333333333314" r="2" fill="#4dabf7"/>
<circle cx="390.4918032786885" cy="73.20833333333331" r="2" fill="#4dabf7"/>
<circle cx="401.4754098360656" cy="137.90277777777777" r="2" fill="#4dabf7"/>
<circle cx="412.4590163934426" cy="109.09722222222223" r="2" fill="#4dabf7"/>
<circle cx="423.44262295081967" cy="31.416666666666686" r="2" fill="#4dabf7"/>
<circle cx="434.42622950819674" cy="66.59722222222223" r="2" fill="#4dabf7"/>
<circle cx="445.40983606557376" cy="106.5" r="2" fill="#4dabf7"/>
<circle cx="456.39344262295083" cy="109.80555555555554" r="2" fill="#4dabf7"/>
<circle cx="467.37704918032784" cy="129.40277777777777" r="2" fill="#4dabf7"/>
<circle cx="478.3606557377049" cy="258.31944444444446" r="2" fill="#4dabf7"/>
<circle cx="489.344262295082" cy="72.73611111111109" r="2" fill="#4dabf7"/>
<circle cx="500.327868852459" cy="211.33333333333334" r="2" fill="#4dabf7"/>
<circle cx="511.3114754098361" cy="149.94444444444443" r="2" fill="#4dabf7"/>
<circle cx="522.295081967213" cy="83.125" r="2" fill="#4dabf7"/>
<circle cx="533.2786885245902" cy="107.6805555555556" r="2" fill="#4dabf7"/>
<circle cx="544.2622950819673" cy="98.70833333333337" r="2" fill="#4dabf7"/>
<circle cx="555.2459016393443" cy="90.20833333333337" r="2" fill="#4dabf7"/>
<circle cx="566.2295081967213" cy="163.87499999999997" r="2" fill="#4dabf7"/>
<circle cx="577.2131147540983" cy="123.5" r="2" fill="#4dabf7"/>
<circle cx="588.1967213114754" cy="78.16666666666663" r="2" fill="#4dabf7"/>
<circle cx="599.1803278688525" cy="48.416666666666686" r="2" fill="#4dabf7"/>
<circle cx="610.1639344262295" cy="90.20833333333337" r="2" fill="#4dabf7"/>
<circle cx="621.1475409836065" cy="51.958333333333314" r="2" fill="#4dabf7"/>
<circle cx="632.1311475409836" cy="46.29166666666663" r="2" fill="#4dabf7"/>
<circle cx="643.1147540983607" cy="52.90277777777777" r="2" fill="#4dabf7"/>
<circle cx="654.0983606557377" cy="158.20833333333334" r="2" fill="#4dabf7"/>
<circle cx="665.0819672131148" cy="71.31944444444446" r="2" fill="#4dabf7"/>
<circle cx="676.0655737704918" cy="62.583333333333314" r="2" fill="#4dabf7"/>
<circle cx="687.0491803278688" cy="55.263888888888914" r="2" fill="#4dabf7"/>
<circle cx="698.0327868852459" cy="62.81944444444446" r="2" fill="#4dabf7"/>
<circle cx="709.016393442623" cy="66.59722222222223" r="2" fill="#4dabf7"/>
<polyline fill="none" stroke="#ffd93d" stroke-width="2" stroke-linejoin="round" points="50,264.69444444444446 60.98360655737705,141.44444444444446 71.9672131147541,253.36111111111114 82.95081967213115,258.55555555555554 93.9344262295082,142.62499999999997 104.91803278688525,141.44444444444446 115.90163934426229,233.29166666666666 126.88524590163935,138.375 137.8688524590164,269.8888888888889 148.85245901639342,106.26388888888886 159.8360655737705,133.6527777777778 170.81967213114754,137.43055555555554 181.80327868852459,232.58333333333334 192.78688524590163,151.83333333333331 203.7704918032787,261.8611111111111 214.75409836065575,104.375 225.7377049180328,247.45833333333331 236.72131147540983,251.94444444444443 247.70491803278688,254.77777777777777 258.6885245901639,272.25 269.672131147541,232.34722222222223 280.655737704918,238.01388888888889 291.6393442622951,272.4861111111111 302.62295081967216,260.2083333333333 313.60655737704917,238.72222222222223 324.59016393442624,250.29166666666669 335.57377049180326,273.90277777777777 346.55737704918033,246.27777777777777 357.5409836065574,251.47222222222223 368.5245901639344,272.4861111111111 379.5081967213115,260.91666666666663 390.4918032786885,247.69444444444446 401.4754098360656,264.22222222222223 412.4590163934426,272.72222222222223 423.44262295081967,248.875 434.42622950819674,240.375 445.40983606557376,264.93055555555554 456.39344262295083,245.80555555555554 467.37704918032784,230.69444444444443 478.3606557377049,220.54166666666666 489.344262295082,273.43055555555554 500.327868852459,226.68055555555554 511.3114754098361,214.16666666666669 522.295081967213,262.33333333333337 533.2786885245902,193.62500000000003 544.2622950819673,115 555.2459016393443,196.2222222222222 566.2295081967213,273.43055555555554 577.2131147540983,131.99999999999997 588.1967213114754,188.66666666666666 599.1803278688525,110.27777777777777 610.1639344262295,200 621.1475409836065,105.08333333333331 632.1311475409836,250.05555555555554 643.1147540983607,273.43055555555554 654.0983606557377,125.625 665.0819672131148,204.95833333333334 676.0655737704918,87.84722222222223 687.0491803278688,84.06944444444446 698.0327868852459,239.66666666666669 709.016393442623,149.4722222222222 720,273.43055555555554"/>
<circle cx="50" cy="264.69444444444446" r="2" fill="#ffd93d"/>
<circle cx="60.98360655737705" cy="141.44444444444446" r="2" fill="#ffd93d"/>
<circle cx="71.9672131147541" cy="253.36111111111114" r="2" fill="#ffd93d"/>
<circle cx="82.95081967213115" cy="258.55555555555554" r="2" fill="#ffd93d"/>
<circle cx="93.9344262295082" cy="142.62499999999997" r="2" fill="#ffd93d"/>
<circle cx="104.91803278688525" cy="141.44444444444446" r="2" fill="#ffd93d"/>
<circle cx="115.90163934426229" cy="233.29166666666666" r="2" fill="#ffd93d"/>
<circle cx="126.88524590163935" cy="138.375" r="2" fill="#ffd93d"/>
<circle cx="137.8688524590164" cy="269.8888888888889" r="2" fill="#ffd93d"/>
<circle cx="148.85245901639342" cy="106.26388888888886" r="2" fill="#ffd93d"/>
<circle cx="159.8360655737705" cy="133.6527777777778" r="2" fill="#ffd93d"/>
<circle cx="170.81967213114754" cy="137.43055555555554" r="2" fill="#ffd93d"/>
<circle cx="181.80327868852459" cy="232.58333333333334" r="2" fill="#ffd93d"/>
<circle cx="192.78688524590163" cy="151.83333333333331" r="2" fill="#ffd93d"/>
<circle cx="203.7704918032787" cy="261.8611111111111" r="2" fill="#ffd93d"/>
<circle cx="214.75409836065575" cy="104.375" r="2" fill="#ffd93d"/>
<circle cx="225.7377049180328" cy="247.45833333333331" r="2" fill="#ffd93d"/>
<circle cx="236.72131147540983" cy="251.94444444444443" r="2" fill="#ffd93d"/>
<circle cx="247.70491803278688" cy="254.77777777777777" r="2" fill="#ffd93d"/>
<circle cx="258.6885245901639" cy="272.25" r="2" fill="#ffd93d"/>
<circle cx="269.672131147541" cy="232.34722222222223" r="2" fill="#ffd93d"/>
<circle cx="280.655737704918" cy="238.01388888888889" r="2" fill="#ffd93d"/>
<circle cx="291.6393442622951" cy="272.4861111111111" r="2" fill="#ffd93d"/>
<circle cx="302.62295081967216" cy="260.2083333333333" r="2" fill="#ffd93d"/>
<circle cx="313.60655737704917" cy="238.72222222222223" r="2" fill="#ffd93d"/>
<circle cx="324.59016393442624" cy="250.29166666666669" r="2" fill="#ffd93d"/>
<circle cx="335.57377049180326" cy="273.90277777777777" r="2" fill="#ffd93d"/>
<circle cx="346.55737704918033" cy="246.27777777777777" r="2" fill="#ffd93d"/>
<circle cx="357.5409836065574" cy="251.47222222222223" r="2" fill="#ffd93d"/>
<circle cx="368.5245901639344" cy="272.4861111111111" r="2" fill="#ffd93d"/>
<circle cx="379.5081967213115" cy="260.91666666666663" r="2" fill="#ffd93d"/>
<circle cx="390.4918032786885" cy="247.69444444444446" r="2" fill="#ffd93d"/>
<circle cx="401.4754098360656" cy="264.22222222222223" r="2" fill="#ffd93d"/>
<circle cx="412.4590163934426" cy="272.72222222222223" r="2" fill="#ffd93d"/>
<circle cx="423.44262295081967" cy="248.875" r="2" fill="#ffd93d"/>
<circle cx="434.42622950819674" cy="240.375" r="2" fill="#ffd93d"/>
<circle cx="445.40983606557376" cy="264.93055555555554" r="2" fill="#ffd93d"/>
<circle cx="456.39344262295083" cy="245.80555555555554" r="2" fill="#ffd93d"/>
<circle cx="467.37704918032784" cy="230.69444444444443" r="2" fill="#ffd93d"/>
<circle cx="478.3606557377049" cy="220.54166666666666" r="2" fill="#ffd93d"/>
<circle cx="489.344262295082" cy="273.43055555555554" r="2" fill="#ffd93d"/>
<circle cx="500.327868852459" cy="226.68055555555554" r="2" fill="#ffd93d"/>
<circle cx="511.3114754098361" cy="214.16666666666669" r="2" fill="#ffd93d"/>
<circle cx="522.295081967213" cy="262.33333333333337" r="2" fill="#ffd93d"/>
<circle cx="533.2786885245902" cy="193.62500000000003" r="2" fill="#ffd93d"/>
<circle cx="544.2622950819673" cy="115" r="2" fill="#ffd93d"/>
<circle cx="555.2459016393443" cy="196.2222222222222" r="2" fill="#ffd93d"/>
<circle cx="566.2295081967213" cy="273.43055555555554" r="2" fill="#ffd93d"/>
<circle cx="577.2131147540983" cy="131.99999999999997" r="2" fill="#ffd93d"/>
<circle cx="588.1967213114754" cy="188.66666666666666" r="2" fill="#ffd93d"/>
<circle cx="599.1803278688525" cy="110.27777777777777" r="2" fill="#ffd93d"/>
<circle cx="610.1639344262295" cy="200" r="2" fill="#ffd93d"/>
<circle cx="621.1475409836065" cy="105.08333333333331" r="2" fill="#ffd93d"/>
<circle cx="632.1311475409836" cy="250.05555555555554" r="2" fill="#ffd93d"/>
<circle cx="643.1147540983607" cy="273.43055555555554" r="2" fill="#ffd93d"/>
<circle cx="654.0983606557377" cy="125.625" r="2" fill="#ffd93d"/>
<circle cx="665.0819672131148" cy="204.95833333333334" r="2" fill="#ffd93d"/>
<circle cx="676.0655737704918" cy="87.84722222222223" r="2" fill="#ffd93d"/>
<circle cx="687.0491803278688" cy="84.06944444444446" r="2" fill="#ffd93d"/>
<circle cx="698.0327868852459" cy="239.66666666666669" r="2" fill="#ffd93d"/>
<circle cx="709.016393442623" cy="149.4722222222222" r="2" fill="#ffd93d"/>
<circle cx="720" cy="273.43055555555554" r="2" fill="#ffd93d"/>
<rect x="740" y="32" width="12" height="12" fill="#00d9a3"/>
<text x="758" y="42" fill="#ddd">Alan</text>
<rect x="740" y="50" width="12" height="12" fill="#ff6b6b"/>
<text x="758" y="60" fill="#ddd">Brandon</text>
<rect x="740" y="68" width="12" height="12" fill="#4dabf7"/>
<text x="758" y="78" fill="#ddd">Liane</text>
<rect x="740" y="86" width="12" height="12" fill="#ffd93d"/>
<text x="758" y="96" fill="#ddd">Shirley</text>
<text x="50" y="20" fill="#ddd" font-weight="bold">Last-exercise hour, each day</text>
</svg>